<svg xmlns="http://www.w3.org/2000/svg" version="1.1" xmlns:xlink="http://www.w3.org/1999/xlink" width="512" height="512"><svg id="SvgjsSvg1001" xmlns="http://www.w3.org/2000/svg" viewBox="0 0 512 512">
  <defs>
    <style>
      .cls-1 {
        fill: #fff;
      }
    </style>
  </defs>
  <rect class="cls-1" width="512" height="512"></rect>
  <g>
    <path d="M439.49,274.45c-1.72-.56-3.66-.64-5.46-1.07-.73-.18-1.55-.58-1.96-1.09-.42-.52-1.08-1.09-.67-1.95.6-1.28,1.09-2.6,1.52-3.93.22-.66.12-1.35-.61-1.86-1.54-1.09-5.55-1.14-6.41,1.39-.22.64-.47,1.28-.81,1.89-.45.8-.7,1.87-1.86,2.11-1.41.29-2.89.46-4.35.46-1.6,0-3.08-.59-4.61-.95-2.56-.62-5.25-.86-7.87-1.28-1.73-.27-3.53-.42-5.17-.92-1.89-.57-3.81-.93-5.75-1.3-1.27-.24-2.56-.47-3.82-.73-1.54-.32-3.06-.72-4.61-1.01-4.32-.8-8.74-1.13-12.97-2.37-2.13-.62-4.46-.76-6.69-1.15-2.72-.47-5.51-.68-8.15-1.52-1.21-.39-2.52-.59-3.8-.8-3.18-.53-6.38-.99-9.56-1.53-3.23-.55-6.45-1.18-9.67-1.76-1-.18-2.12-.14-2.97-.54-1.45-.67-3.03-.83-4.56-1.11-2.95-.54-5.96-.86-8.92-1.35-2.56-.43-5.1-.96-7.64-1.47-3.82-.77-7.75-1-11.53-2.04-2.3-.64-4.79-.78-7.18-1.2-3.62-.64-7.22-1.34-10.84-1.98-.89-.16-1.81-.18-2.71-.31-2.57-.38-5.11-.83-7.61-1.52-2.25-.62-4.7-.71-7.05-1.06-2.47-.38-4.93-.79-7.4-1.19-3.46-.57-6.92-1.15-10.39-1.72-.94-.16-1.94-.2-2.82-.5-1.99-.68-4.09-.83-6.16-1.15-3.42-.53-6.92-.79-10.24-1.61-2.92-.72-5.92-.93-8.83-1.58-1.79-.4-3.29-.89-3.99-2.53-.51-1.2-.46-2.5.61-3.27,2.35-1.67,5.05-2.82,8.03-3.4,2.6-.5,5.25-.84,7.88-1.2,2.36-.32,4.73-.58,7.11-.84,2.2-.23,4.41-.42,6.62-.63.45-.04.92-.04,1.36-.11,2.67-.41,5.34-.88,8.02-1.24,1.63-.22,3.3-.21,4.93-.43,3.26-.44,6.56-.75,9.82-1.15,2.73-.34,5.52-.4,8.25-1.06,3.04-.74,6.3-.84,9.45-1.23,1.75-.22,3.57-.24,5.22-.71,3.13-.89,6.4-.83,9.57-1.34,2.01-.33,4.08-.38,6.1-.66,2.3-.31,4.57-.77,6.86-1.11,1.62-.25,3.3-.3,4.89-.64,2.27-.48,4.49-.54,6.74,0,2.63.64,5.33.99,8.05,1.22,4.37.37,8.71-.08,13.05-.34,2.94-.18,5.86-.68,8.78-1.04.62-.08,1.23-.19,1.84-.28,3.35-.49,6.84-.35,9.99-1.69.14-.06.34-.04.51-.06,4.23-.46,8.39-1.24,12.48-2.27,1.09-.28,2.16-.61,3.26-.83,2.73-.55,5.42-.74,7.82.88.27.18.58.31.86.47,1.7.99,3.45,1.93,5.08,2.99,2.26,1.47,4.44,3.04,6.63,4.58,1.22.86,2.44,1.71,3.56,2.66,1.61,1.37,3.17,2.78,4.66,4.24,1.63,1.6,3.16,3.29,4.73,4.94.21.23.38.5.64.68,1.1.74,1.55,1.83,2.19,2.81.62.96,1.09,2,1.77,2.93,1.1,1.52,1.95,3.12,2.61,4.81.28.73.53,1.5,1,2.13,1.06,1.41,4.04,1.68,5.74.65.69-.42.99-.92.87-1.61-.13-.76-.18-1.55-.47-2.27-1.26-3.1-2.59-6.19-4.59-9.02-1.36-1.94-2.83-3.82-4.26-5.73-.61-.81-1.2-1.64-1.88-2.41-.8-.92-1.69-1.78-2.54-2.67-.14-.15-.24-.34-.39-.47-2.3-1.95-4.59-3.9-6.9-5.83-2.19-1.82-4.33-3.69-6.9-5.15-.19-.11-.33-.26-.51-.38-2.19-1.4-4.33-2.85-6.58-4.18-1.87-1.11-3.86-2.07-5.8-3.1-1.11-.59-2.2-1.23-3.35-1.77-2.2-1.03-4.56-1.86-6.62-3.05-2.29-1.33-4.98-1.91-7.27-3.2-2-1.12-4.5-1.39-6.45-2.64-.26-.17-.64-.2-.95-.31-2.16-.74-4.31-1.47-6.47-2.21-.47-.16-.93-.37-1.41-.5-1.51-.41-3.06-.72-4.55-1.19-2.55-.81-5.04-1.77-7.75-2.2-1.27-.2-2.49-.64-3.72-.99-1.13-.33-2.23-.76-3.37-1.03-1.47-.35-2.99-.58-4.47-.9-1.25-.27-2.47-.66-3.72-.89-3.06-.56-6.14-1.04-9.21-1.58-2.56-.46-5.1-.98-7.66-1.44-.89-.16-1.82-.18-2.71-.32-2.97-.46-5.93-.99-8.9-1.41-1.35-.19-2.76-.04-4.09-.26-3.54-.58-7.11-.89-10.72-.94-.17,0-.34-.02-.52-.03-2.62-.18-5.24-.37-7.85-.55-.62-.04-1.24-.09-1.87-.13-2.27-.15-4.53-.41-6.8-.43-5.86-.06-11.72-.09-17.58,0-5.9.09-11.8-.37-17.69.33-2.31.28-4.69.14-7.03.24-1.54.07-3.08.19-4.62.32-2.27.2-4.53.42-6.79.63-2.72.25-5.45.44-8.16.76-1.79.21-3.53.68-5.31.92-2.36.32-4.74.52-7.11.8-1.86.22-3.67.61-5.49,1-3.7.79-7.46,1.35-11.18,2.07-1.48.29-2.9.78-4.37,1.11-3.52.77-7.21,1.04-10.46,2.59-.38.18-.88.19-1.31.3-1.78.47-3.57.95-5.35,1.44-1.45.41-2.9.8-4.32,1.29-1.36.47-2.96.4-4.09,1.36-.19.16-.5.24-.76.32-1.43.48-2.88.91-4.3,1.42-1.51.55-2.96,1.2-4.47,1.76-.93.35-1.94.55-2.87.91-1.5.57-2.99,1.19-4.45,1.83-2.13.93-4.28,1.84-6.34,2.86-3.75,1.86-7.47,3.75-11.15,5.71-1.54.82-2.9,1.89-4.41,2.76-2.74,1.59-5.34,3.3-7.81,5.19-2.41,1.85-4.79,3.72-7,5.74-.46.43-1.1.75-1.45,1.23-1.13,1.57-2.91,2.66-4.18,4.16-1.03,1.23-2.14,2.48-3.22,3.71-2.34,2.65-3.97,5.68-5.8,8.59-.5.8-.99,1.63-1.33,2.49-.82,2.06-1.59,4.14-2.29,6.24-.25.75-.14,1.49.76,2.07,1.74,1.12,4.3,1.03,5.79-.32.15-.14.36-.28.39-.45.35-1.72,1.43-3.22,2.01-4.85.99-2.74,2.89-5.05,4.47-7.5.78-1.21,1.89-2.27,2.92-3.36,1.28-1.35,2.63-2.64,3.95-3.96.25-.25.47-.54.72-.79.43-.43.83-.9,1.31-1.28,1.46-1.14,2.97-2.24,4.44-3.38,1.42-1.1,2.72-2.32,4.22-3.33,2.63-1.78,5.3-3.52,8.07-5.15,2.49-1.46,5.1-2.77,7.7-4.09,1.91-.96,3.89-1.83,5.85-2.73,1.56-.71,3.11-1.43,4.69-2.11,1.27-.55,2.58-1.03,3.86-1.56.51-.22.96-.54,1.48-.73,2.5-.91,5.25-1.32,7.55-2.64.22-.13.54-.15.8-.23,2.35-.72,4.8-1.2,6.99-2.27.34-.17.75-.23,1.13-.33,1.62-.41,3.31-.7,4.86-1.26,2.47-.88,5.05-1.39,7.61-1.98,1.7-.4,3.37-.86,5.06-1.29.59-.15,1.18-.36,1.78-.47,2.05-.4,4.12-.76,6.16-1.18,1.97-.4,3.91-.88,5.88-1.28.72-.15,1.48-.14,2.21-.26,4.69-.76,9.38-1.57,14.08-2.3,1.73-.27,3.51-.33,5.26-.54,2.37-.28,4.72-.8,7.1-.88,3.78-.12,7.5-.59,11.26-.83.68-.05,1.34-.22,2.02-.28,1.82-.15,3.65-.27,5.47-.4,1.42-.1,2.84-.26,4.26-.27,3.28-.04,6.55-.01,9.83-.02.52,0,1.03-.02,1.55-.05,2.89-.23,5.8-.4,8.68.09,2.15.37,3.96,2.11,2.34,4.22-.61.8-1.95,1.5-3.07,1.67-3.58.52-6.78,1.95-10.24,2.73-2.65.6-4.89,2.07-7.63,2.46-.67.09-1.31.34-1.93.57-3.8,1.42-7.6,2.82-11.38,4.28-1.76.68-3.37,1.75-5.21,2.18-3.54.83-6.34,2.84-9.68,4.01-2.87,1.01-5.41,2.69-8.1,4.06-.34.18-.71.31-1.06.48-1.82.91-3.79,1.6-5.34,2.88-.69.57-1.28,1.14-1.03,2.01.25.86,1.13,1.28,2,1.43,1.77.31,3.61.4,5.4.66,2.29.34,4.57.74,6.84,1.17.4.08.83.39,1.07.69,1.33,1.69.76,3.6-1.07,4.45-.9.42-1.76.92-2.69,1.27-1.14.43-2.31.89-3.52,1.09-3.13.51-6.3.81-9.42,1.33-2.85.47-5.7.85-8.59,1.07-1.58.12-3.14.48-4.72.62-1.24.11-2.52.18-3.73.02-3.33-.43-6.61-1.21-9.81-.8-3.9-.27-7.49.4-11.13.75-2.58.25-4.8,1.14-7.09,2-1.38.52-1.66,2.17-.21,2.92,1.56.8,3.35.85,5.06,1.12,1.62.25,3.27.41,4.9.59,1.82.2,3.53.72,5.29,1.1,2.58.57,5.25.97,7.91,1.17,2.33.17,4.2,1.09,6.15,1.97,1.25.56,1.03,1.75,1.68,2.55-.63.94-.69,2.14-1.92,2.8-.82.44-1.69.88-2.33,1.48-1.76,1.67-4.14,2.71-5.95,4.31-.86.76-1.82,1.46-2.79,2.12-1.89,1.31-3.82,2.58-5.74,3.86-.13.09-.26.19-.39.28-1.46,1.12-2.91,2.23-4.38,3.35-1.9,1.44-3.68,2.99-5.81,4.23-1.47.85-2.59,2.12-3.92,3.15-2.4,1.84-4.84,3.65-7.28,5.46-1.72,1.27-3.47,2.51-5.19,3.78-.72.53-1.38,1.12-2.09,1.67-1.74,1.32-3.53,2.6-5.25,3.95-1.49,1.17-2.89,2.41-4.39,3.57-2.86,2.22-5.91,4.29-8.59,6.65-1.4,1.23-2.89,2.04-4.79,2.22-2.06.19-3.96-.29-5.49-1.57-.6-.51-1.21-1.01-1.84-1.49-.55-.42-1.16-.78-1.67-1.22-1.26-1.1-2.5-2.23-3.72-3.37-1.56-1.46-3.18-2.89-4.6-4.44-1.25-1.36-2.29-2.87-3.4-4.32-.46-.6-.94-1.2-1.29-1.85-1.44-2.63-3.04-5.21-4.06-8-.11-.29-.48-.52-.75-.76-1.01-.92-3.97-.86-5.02-.18-.64.41-.98.86-1.01,1.57-.07,1.6.73,3,1.37,4.43.59,1.29,1.37,2.51,2.07,3.76.95,1.68,1.66,3.47,3.11,4.93.14.14.26.32.33.5.7,1.83,2.16,3.24,3.54,4.69,1.07,1.12,2.11,2.25,3.17,3.38.98,1.05,1.84,2.2,2.96,3.14,2.33,1.95,4.79,3.79,7.18,5.68.16.12.28.29.39.46,1.12,1.67.11,3.37-1.28,4.31-1.68,1.14-3.28,2.37-4.83,3.64-1.73,1.4-3.37,2.87-5.04,4.32-1.62,1.4-3.19,2.85-4.85,4.22-1.91,1.58-3.93,3.07-5.84,4.66-2.46,2.06-4.78,4.24-7.31,6.24-2.58,2.04-4.63,4.53-7.51,6.3-.13.08-.19.24-.3.35-.84.78-1.68,1.56-2.53,2.33-1.12,1.03-2.38,1.97-3.34,3.09-1.59,1.88-1.03,3.37,1.1,3.77.72.13,1.43.34,2.16.36,1.6.05,3.22.02,4.82.02,1.59,0,3.03-.35,4.36-1.13,1.27-.75,2.52-1.5,3.47-2.57.44-.5,1.02-.91,1.55-1.36,1.88-1.61,3.77-3.22,5.65-4.83,1.47-1.26,2.93-2.53,4.39-3.8,1.46-1.27,2.9-2.56,4.37-3.83.95-.82,2.16-1.43,2.73-2.54.08-.16.35-.24.52-.37,1.61-1.22,3.26-2.4,4.81-3.67,1.88-1.54,3.67-3.14,5.48-4.73.74-.65,1.39-1.37,2.14-2.01.64-.55,1.41-.98,2.06-1.53,2.97-2.5,6.48-2.62,9.87-.94,1.23.61,2.44,1.26,3.67,1.87,2.66,1.32,5.28,2.7,8,3.92,2.48,1.11,5.06,2.06,7.62,3.02,1.51.56,3.08.99,4.6,1.52,1.31.46,2.58,1.01,3.88,1.5,1.14.42,2.3.81,3.45,1.21,1,.35,1.98.72,2.99,1.03,1.44.44,2.89.84,4.34,1.25,1.78.5,3.57.97,5.35,1.47,1.72.48,3.42,1.02,5.15,1.46,1.89.49,3.8.95,5.72,1.35,1.82.38,3.73.5,5.48,1.04,1.5.46,2.97.9,4.54,1.14,2.36.35,4.76.59,7.03,1.2,3.46.92,7.02,1.22,10.57,1.67,1.69.21,3.38.36,5.06.59,1.63.23,3.24.56,4.87.78,3.1.41,6.22.79,9.38.69.34-.01.68.05,1.02.08,1.42.13,2.83.3,4.25.39,1.99.13,3.99.2,5.98.31,1.59.09,3.19.21,4.78.28,3.48.14,6.97.25,10.45.4.73.03,1.46.28,2.19.27,4.29-.09,8.59.24,12.88-.26,4.33-.5,8.7-.46,13.05-.41.52,0,1.05.06,1.55-.03,2.53-.45,5.08-.6,7.66-.56,1.08.02,2.17-.11,3.25-.19,1.42-.09,2.84-.19,4.26-.29,2.1-.14,4.21-.26,6.31-.43.62-.05,1.22-.23,1.83-.37.93-.21,1.85-.52,2.79-.63,2.99-.37,5.99-.66,8.98-1.01,1.58-.18,3.17-.37,4.72-.66,2.27-.41,4.5-.95,6.77-1.38,2.28-.43,4.66-.57,6.83-1.23,2.15-.64,4.33-1.04,6.54-1.45,1.71-.32,3.39-.79,5.08-1.22,1.36-.34,2.7-.72,4.05-1.08,1.73-.47,3.45-.95,5.17-1.45.75-.22,1.45-.56,2.2-.77,1.61-.46,3.25-.83,4.84-1.32,1.59-.5,3.15-1.11,4.71-1.69,2.09-.77,4.17-1.57,6.26-2.34,1.31-.48,2.66-.87,3.95-1.38.88-.35,1.67-.85,2.54-1.22,2.71-1.14,5.51-2.16,8.15-3.4,3.09-1.46,6.07-3.1,9.09-4.68,1.65-.86,3.34-1.69,4.92-2.65,1.85-1.12,3.61-2.36,5.39-3.58,1.81-1.24,3.66-2.45,5.36-3.79,2.2-1.73,4.24-3.61,6.42-5.37,3.13-2.55,5.63-5.53,8.04-8.56,1.38-1.74,3.03-2.7,5.45-2.66,3.34.05,6.54.81,9.75,1.49,1.32.28,3.03.7,4.23.68M240.6,212.74c.31-.39.82-.67,1.27-.96,3.31-2.07,6.64-4.1,9.92-6.19,2.29-1.45,4.47-3.01,6.78-4.45,3.13-1.95,6.35-3.79,9.49-5.73,2.07-1.28,4.05-2.68,6.1-3.99.73-.46,1.58-.78,2.33-1.21.84-.48,1.63-1.03,2.47-1.52,1.74-1.03,3.51-2.01,5.22-3.06.64-.39,1.43-.82,1.69-1.39.81-1.75,2.48-2.2,4.39-2.55,2.29-.41,4.52-.3,6.76.17.44.09.91.1,1.36.12,3.6.09,7.13.49,10.6,1.36,1.84.46,3.82.51,5.73.79,3.14.47,6.36.74,9.38,1.54,3.83,1.01,7.78,1.43,11.63,2.26.27.06.56.12.79.24,1.57.88,3.43,1.04,5.17,1.44,2.61.6,5.24,1.13,7.76,1.98,1.62.55,3.34.88,5.01,1.32.44.11.91.2,1.28.4,2.09,1.15,4.55,1.47,6.83,2.19.32.1.72.09.98.25,1.84,1.12,3.95,1.62,6.08,2.18,1.53.4,2.84,1.22,3.04,2.82.18,1.44-.84,2.93-2.75,3.19-2.62.35-5.24.38-7.88.39-1.19,0-2.39.13-3.56.29-3.05.41-6.13.17-9.21.64-3.11.48-6.29,1.03-9.53.83-1-.06-2.03.17-3.04.27-4.13.39-8.28.73-12.4,1.19-2.48.28-4.93.77-7.39,1.17-.34.05-.66.13-1,.17-2.71.28-5.44.49-8.14.84-2.52.32-5.01.83-7.54,1.18-1.97.27-3.96.39-5.93.62-1.74.21-3.48.48-5.22.72-.34.05-.67.13-1.01.13-2.65,0-5.18.63-7.77,1-2.64.38-5.31.57-7.97.86-.79.08-1.58.19-2.37.28-4.96.57-9.92,1.17-14.84,1.99-2.17.37-4.43.36-6.64.55-1.3.11-2.6.29-3.74.42-.8-.05-1.43-.1-2.06-.12-1.35-.04-2.16-.61-2.67-1.67-.54-1.13-.14-2.07.57-2.97h0ZM416.16,280.78c-2.19,1.88-4.21,3.91-6.44,5.76-2.85,2.36-5.79,4.63-9.04,6.61-2.5,1.53-4.83,3.25-7.37,4.73-2.16,1.26-4.49,2.31-6.75,3.44-.99.5-1.97.99-2.97,1.46-1.1.52-2.21,1.01-3.32,1.51-1.71.78-3.36,1.68-5.15,2.31-3.45,1.21-6.72,2.77-10.31,3.74-1.8.48-3.49,1.35-5.31,1.89-2.36.7-4.65,1.59-7.02,2.25-4.2,1.17-8.43,2.28-12.69,3.3-1.55.37-3.04.74-4.51,1.31-1.05.41-2.34.36-3.52.55-2.63.41-5.22.86-7.77,1.6-2.24.66-4.66.89-7.02,1.21-3.03.42-6.13.58-9.12,1.15-2.56.48-5.07.96-7.72,1.07-2.6.11-5.18.62-7.77.96-.28.04-.57.04-.86.05-1.36.1-2.72.2-4.08.29-1.02.07-2.04.1-3.06.15,0-.07-.02-.13-.03-.19-1.86.22-3.73.44-5.59.65-.57.06-1.15.04-1.72.08-2.22.15-4.43.32-6.65.45-1.01.06-2.04,0-3.05.05-1.19.06-2.38.26-3.58.27-6.26.03-12.52.05-18.79-.01-1.47-.01-2.94-.34-4.41-.51-.78-.09-1.57-.19-2.36-.24-2.45-.18-4.89-.35-7.34-.52-.46-.03-.92-.08-1.37-.07-3.56.12-7.06-.37-10.57-.71-2.88-.28-5.78-.46-8.66-.78-1.62-.18-3.21-.55-4.82-.81-1.9-.31-3.79-.79-5.7-.87-3.62-.15-7.15-.81-10.57-1.62-2.85-.67-5.71-1.24-8.59-1.74-1.97-.34-3.81-.91-5.7-1.42-1.84-.5-3.75-.77-5.61-1.21-1.47-.35-2.91-.78-4.36-1.19-1.24-.34-2.45-.77-3.71-1.02-1.84-.37-3.58-.89-5.27-1.63-1.1-.49-2.34-.74-3.51-1.12-1.21-.4-2.4-.83-3.6-1.25-1.26-.44-2.53-.87-3.78-1.34-3.39-1.29-6.81-2.53-10.13-3.94-2.66-1.12-5.18-2.47-7.77-3.7-.24-.11-.54-.13-.81-.2-1.5-.38-2.51-1.16-2.68-2.51-.15-1.26.23-2.27,1.57-3.13,1.7-1.09,3.15-2.46,4.7-3.72.08-.06.1-.21.18-.24,1.87-.72,2.78-2.37,4.41-3.32,1.01-.58,1.69-1.37,2.47-2.13,1.08-1.04,2.51-1.82,3.79-2.71.4-.28.79-.56,1.17-.85,2.32-1.79,4.64-3.57,6.94-5.38,1.28-1.01,2.51-2.06,3.77-3.09.29-.24.53-.52.84-.72,3.59-2.38,6.96-4.97,10.24-7.64,1.81-1.47,3.8-2.76,5.71-4.14,2.34-1.68,4.7-3.35,7.01-5.05,2.65-1.96,5.24-3.98,7.9-5.93,2.02-1.49,4.12-2.88,6.13-4.37.63-.47,1.35-1.04,1.57-1.67.33-1,1.12-1.56,2.07-1.76,2.08-.43,3.74-1.46,5.39-2.48,1.02-.63,2.14-.87,3.3-1.12,3.9-.85,7.66-.37,11.41.68,1.39.39,2.89.52,4.35.72,2.53.35,5.07.64,7.6,1,.84.12,1.63.42,2.46.56,2.39.41,4.8.79,7.2,1.17,2.79.44,5.65.62,8.33,1.55.88.3,1.89.36,2.84.49,2.92.4,5.85.77,8.76,1.19.95.14,1.92.3,2.81.61,2.21.76,4.58.72,6.86,1.12,2.51.43,5.06.71,7.58,1.15,2.22.39,4.39.97,6.61,1.38,2.56.47,5.14.82,7.71,1.27,1.73.3,3.42.74,5.15,1.02,2.79.45,5.62.75,8.4,1.26,1.31.24,2.64.4,3.91.95,1.17.51,2.64.52,3.98.75,2.84.48,5.68.96,8.52,1.44,4.58.78,9.16,1.56,13.73,2.37,3.67.65,7.34,1.33,11,2.04,5.48,1.07,10.98,2.09,16.52,2.93,1.22.19,2.39.58,3.59.83,1.55.32,3.09.64,4.66.9,2.01.34,4.05.57,6.05.93,1.5.27,2.95.75,4.46,1.03,3.23.59,6.47,1.1,9.71,1.64.28.05.62-.03.85.07,2.57,1.19,5.49,1.15,8.24,1.7,2.15.43,4.27.98,6.42,1.4,2.61.51,5.24.93,7.86,1.42,1.66.31,3.39.32,4.96,1.04,2.22,1.01,2.38,3.31.85,4.62v-.02Z"></path>
    <path d="M432.77,279.43c2.71.54,5.48.93,8.13,1.63,2.52.67,4.96.54,7.41.03,1.03-.21,2.05-.63,2.94-1.13,1.15-.65,1.17-2.01.06-2.72-.65-.42-1.48-.72-2.27-.89-2.32-.49-4.67-.86-7-1.33-1.37-.28-2.78-.68-4.15-.95"></path>
  </g>
</svg><style>@media (prefers-color-scheme: light) { :root { filter: none; } }
@media (prefers-color-scheme: dark) { :root { filter: none; } }
</style></svg>